<svg width="168" height="24" viewBox="0 0 168 26" fill="white" xmlns="http://www.w3.org/2000/svg">
<path fill-rule="evenodd" clip-rule="evenodd" d="M122.749 4.61451C124.894 2.20411 127.821 1 131.531 1H137.76C138.608 1 139.147 1.97886 138.741 2.78171L136.255 7.696C135.864 8.47017 135.111 8.95189 134.294 8.95189H131.531C129.922 8.95189 128.804 9.31326 128.179 10.0362C127.642 10.6619 127.374 11.6502 127.374 13C127.374 14.3974 127.642 15.3856 128.179 15.9638C128.759 16.6867 129.877 17.0481 131.531 17.0481H134.481C136.536 17.0481 138.324 16.1559 139.844 14.3736C140.156 13.9872 140.737 12.9751 141.587 11.3373C142.703 9.07166 143.687 7.40891 144.536 6.34949C145.966 4.61451 147.597 3.28846 149.43 2.3736C151.262 1.45749 153.228 1 155.33 1H156.469C160.178 1 163.106 2.20411 165.251 4.61451C167.083 6.7344 168 9.53006 168 13C168 16.4699 167.083 19.2643 165.251 21.3855C163.106 23.795 160.178 25 156.469 25H152.251C151.403 25 150.864 24.0211 151.27 23.2183L153.756 18.304C154.147 17.5298 154.9 17.0481 155.718 17.0481H156.469C158.122 17.0481 159.24 16.6867 159.821 15.9638C160.358 15.3856 160.626 14.3974 160.626 13C160.626 11.6502 160.358 10.6619 159.821 10.0362C159.195 9.31326 158.078 8.95189 156.469 8.95189H155.33C153.273 8.95189 151.508 9.84297 150.033 11.6264C149.675 12.1077 149.139 13.0475 148.424 14.4458C147.173 16.951 146.145 18.6859 145.341 19.6505C142.391 23.2166 138.771 25 134.481 25H131.531C127.821 25 124.894 23.795 122.749 21.3855C120.916 19.2643 120 16.4699 120 13C120 9.53006 120.916 6.7344 122.749 4.61451Z" fill="white"/>
<path d="M6.46 25.272C8.092 25.272 9.40667 24.8073 10.404 23.878C11.5373 22.79 12.104 21.3053 12.104 19.424V17.928C12.104 15.752 11.2653 13.916 9.588 12.42C9.13467 12.012 8.31867 11.4907 7.14 10.856C6.48267 10.4933 6.04067 10.2213 5.814 10.04C4.97533 9.292 4.556 8.39667 4.556 7.354V6.776C4.556 5.96 4.726 5.39333 5.066 5.076C5.36067 4.804 5.82533 4.668 6.46 4.668C7.11733 4.668 7.582 4.804 7.854 5.076C8.194 5.37067 8.364 5.93733 8.364 6.776V8.85H12.104V6.776C12.104 4.89467 11.5373 3.41 10.404 2.322C9.40667 1.39267 8.092 0.928 6.46 0.928C4.828 0.928 3.51333 1.39267 2.516 2.322C1.38267 3.41 0.816 4.89467 0.816 6.776V7.354C0.816 8.41933 1.03133 9.41667 1.462 10.346C1.89267 11.2753 2.516 12.1027 3.332 12.828C3.83067 13.2587 4.61267 13.7573 5.678 14.324C6.44867 14.7547 6.92467 15.0493 7.106 15.208C7.94467 15.9787 8.364 16.8853 8.364 17.928V19.424C8.364 20.2627 8.194 20.8293 7.854 21.124C7.582 21.396 7.11733 21.532 6.46 21.532C5.82533 21.532 5.36067 21.396 5.066 21.124C4.726 20.8067 4.556 20.24 4.556 19.424V16.33H0.816V19.424C0.816 21.3053 1.38267 22.79 2.516 23.878C3.51333 24.8073 4.828 25.272 6.46 25.272ZM29.6804 25.272C31.3124 25.272 32.6271 24.8073 33.6244 23.878C34.7578 22.79 35.3244 21.3053 35.3244 19.424V6.776C35.3244 4.89467 34.7578 3.41 33.6244 2.322C32.6271 1.39267 31.3124 0.928 29.6804 0.928C28.0484 0.928 26.7338 1.39267 25.7364 2.322C24.6031 3.41 24.0364 4.89467 24.0364 6.776V19.424C24.0364 21.3053 24.6031 22.79 25.7364 23.878C26.7338 24.8073 28.0484 25.272 29.6804 25.272ZM29.6804 4.668C30.3378 4.668 30.8024 4.804 31.0744 5.076C31.4144 5.37067 31.5844 5.93733 31.5844 6.776V19.424C31.5844 20.2627 31.4144 20.8293 31.0744 21.124C30.8024 21.396 30.3378 21.532 29.6804 21.532C29.0458 21.532 28.5811 21.396 28.2864 21.124C27.9464 20.8067 27.7764 20.24 27.7764 19.424V6.776C27.7764 5.96 27.9464 5.39333 28.2864 5.076C28.5811 4.804 29.0458 4.668 29.6804 4.668ZM53.2013 17.282L56.0233 1.2H59.8313L55.0713 25H51.3313L46.5713 1.2H50.3793L53.2013 17.282ZM83.533 1.2L78.909 16.636V25H75.135V16.636L70.545 1.2H74.489L77.005 9.734L79.589 1.2H83.533ZM106.847 1.2L102.223 16.636V25H98.4495V16.636L93.8595 1.2H97.8035L100.319 9.734L102.903 1.2H106.847Z" fill="white"/>
</svg>
